<svg xmlns="http://www.w3.org/2000/svg" viewBox="0 0 800 500">
<defs><linearGradient id="sky3" x1="0" y1="0" x2="0" y2="1"><stop offset="0%" stop-color="#0d1b2a"/><stop offset="100%" stop-color="#1e3a5f"/></linearGradient>
<linearGradient id="sea3" x1="0" y1="0" x2="0" y2="1"><stop offset="0%" stop-color="#0a3d5c"/><stop offset="100%" stop-color="#061829"/></linearGradient></defs>
<rect width="800" height="500" fill="url(#sky3)"/>
<rect x="0" y="340" width="800" height="160" fill="url(#sea3)"/>
<!-- Waves -->
<path d="M0 340 Q100 330 200 340 Q300 350 400 340 Q500 330 600 340 Q700 350 800 340 L800 355 L0 355Z" fill="rgba(255,255,255,0.06)"/>
<!-- Stars -->
<circle cx="50" cy="40" r="2" fill="white" opacity="0.8"/>
<circle cx="120" cy="25" r="1.5" fill="white" opacity="0.6"/>
<circle cx="200" cy="60" r="2" fill="white" opacity="0.7"/>
<circle cx="650" cy="30" r="2" fill="white" opacity="0.8"/>
<circle cx="720" cy="55" r="1.5" fill="white" opacity="0.6"/>
<circle cx="760" cy="20" r="2" fill="white" opacity="0.7"/>
<!-- Platform legs -->
<rect x="200" y="200" width="30" height="180" fill="#2c3e50"/>
<rect x="380" y="200" width="30" height="180" fill="#2c3e50"/>
<rect x="560" y="200" width="30" height="180" fill="#2c3e50"/>
<!-- Diagonal braces -->
<line x1="215" y1="200" x2="395" y2="350" stroke="#34495e" stroke-width="8"/>
<line x1="395" y1="200" x2="215" y2="350" stroke="#34495e" stroke-width="8"/>
<line x1="395" y1="200" x2="575" y2="350" stroke="#34495e" stroke-width="8"/>
<line x1="575" y1="200" x2="395" y2="350" stroke="#34495e" stroke-width="8"/>
<!-- Main deck -->
<rect x="160" y="195" width="450" height="30" rx="4" fill="#34495e"/>
<rect x="160" y="198" width="450" height="8" fill="rgba(255,255,255,0.06)"/>
<!-- Module deck -->
<rect x="175" y="130" width="420" height="70" rx="4" fill="#2c3e50"/>
<!-- Living quarters -->
<rect x="185" y="80" width="140" height="55" rx="4" fill="#1a252f"/>
<rect x="190" y="85" width="50" height="25" fill="#3498db" opacity="0.6" rx="2"/>
<rect x="245" y="85" width="50" height="25" fill="#3498db" opacity="0.6" rx="2"/>
<rect x="300" y="85" width="20" height="25" fill="#3498db" opacity="0.6" rx="2"/>
<!-- Crane -->
<rect x="490" y="50" width="14" height="150" fill="#e67e22"/>
<line x1="497" y1="60" x2="570" y2="60" stroke="#e67e22" stroke-width="8"/>
<line x1="570" y1="60" x2="570" y2="120" stroke="#e67e22" stroke-width="6"/>
<line x1="497" y1="65" x2="542" y2="115" stroke="#c0392b" stroke-width="3"/>
<!-- Helipad -->
<circle cx="540" cy="165" r="38" fill="#27ae60" opacity="0.8"/>
<circle cx="540" cy="165" r="34" fill="none" stroke="white" stroke-width="3"/>
<text x="540" y="170" text-anchor="middle" font-family="Arial,sans-serif" font-size="22" font-weight="bold" fill="white">H</text>
<!-- Drill tower/derrick -->
<polygon points="340,25 310,130 370,130" fill="#e74c3c" stroke="#c0392b" stroke-width="2"/>
<line x1="325" y1="70" x2="355" y2="70" stroke="#c0392b" stroke-width="3"/>
<line x1="320" y1="90" x2="360" y2="90" stroke="#c0392b" stroke-width="3"/>
<line x1="315" y1="110" x2="365" y2="110" stroke="#c0392b" stroke-width="3"/>
<!-- Red beacon light -->
<circle cx="340" cy="22" r="6" fill="#e74c3c"/><circle cx="340" cy="22" r="10" fill="#e74c3c" opacity="0.3"/>
<!-- Flare boom -->
<line x1="175" y1="150" x2="130" y2="100" stroke="#7f8c8d" stroke-width="5"/>
<circle cx="128" cy="96" r="10" fill="#f39c12"/>
<circle cx="128" cy="96" r="20" fill="#f39c12" opacity="0.3"/>
<!-- Floats/pontoons -->
<ellipse cx="320" cy="350" rx="200" ry="18" fill="#2c3e50"/>
<rect x="120" y="336" width="400" height="30" rx="8" fill="#34495e"/>
<rect x="120" y="339" width="400" height="8" fill="rgba(255,255,255,0.07)"/>
<!-- Caption -->
<text x="400" y="465" text-anchor="middle" font-family="Arial,sans-serif" font-size="18" font-weight="bold" fill="rgba(255,255,255,0.9)">SEMI-SUBMERSIBLE OFFSHORE DRILLING RIG</text>
<text x="400" y="485" text-anchor="middle" font-family="Arial,sans-serif" font-size="12" fill="rgba(255,255,255,0.55)">Ultra-Deep Water • 3,000m Depth Rating • 120 POB</text>
</svg>