<svg xmlns="http://www.w3.org/2000/svg" viewBox="0 0 800 500">
<defs>
<linearGradient id="bgequip15" x1="0" y1="0" x2="1" y2="1">
  <stop offset="0%" stop-color="#0a2030"/>
  <stop offset="100%" stop-color="#000008"/>
</linearGradient>
<linearGradient id="accequip15" x1="0" y1="0" x2="0" y2="1">
  <stop offset="0%" stop-color="#27ae60"/>
  <stop offset="100%" stop-color="#008638"/>
</linearGradient>
</defs>
<rect width="800" height="500" fill="url(#bgequip15)"/>
<!-- Grid pattern background -->
<g opacity="0.04">
  <line x1="0" y1="0" x2="0" y2="500" stroke="white" stroke-width="1"/><line x1="40" y1="0" x2="40" y2="500" stroke="white" stroke-width="1"/><line x1="80" y1="0" x2="80" y2="500" stroke="white" stroke-width="1"/><line x1="120" y1="0" x2="120" y2="500" stroke="white" stroke-width="1"/><line x1="160" y1="0" x2="160" y2="500" stroke="white" stroke-width="1"/><line x1="200" y1="0" x2="200" y2="500" stroke="white" stroke-width="1"/><line x1="240" y1="0" x2="240" y2="500" stroke="white" stroke-width="1"/><line x1="280" y1="0" x2="280" y2="500" stroke="white" stroke-width="1"/><line x1="320" y1="0" x2="320" y2="500" stroke="white" stroke-width="1"/><line x1="360" y1="0" x2="360" y2="500" stroke="white" stroke-width="1"/><line x1="400" y1="0" x2="400" y2="500" stroke="white" stroke-width="1"/><line x1="440" y1="0" x2="440" y2="500" stroke="white" stroke-width="1"/><line x1="480" y1="0" x2="480" y2="500" stroke="white" stroke-width="1"/><line x1="520" y1="0" x2="520" y2="500" stroke="white" stroke-width="1"/><line x1="560" y1="0" x2="560" y2="500" stroke="white" stroke-width="1"/><line x1="600" y1="0" x2="600" y2="500" stroke="white" stroke-width="1"/><line x1="640" y1="0" x2="640" y2="500" stroke="white" stroke-width="1"/><line x1="680" y1="0" x2="680" y2="500" stroke="white" stroke-width="1"/><line x1="720" y1="0" x2="720" y2="500" stroke="white" stroke-width="1"/><line x1="760" y1="0" x2="760" y2="500" stroke="white" stroke-width="1"/>
  <line x1="0" y1="0" x2="800" y2="0" stroke="white" stroke-width="1"/><line x1="0" y1="40" x2="800" y2="40" stroke="white" stroke-width="1"/><line x1="0" y1="80" x2="800" y2="80" stroke="white" stroke-width="1"/><line x1="0" y1="120" x2="800" y2="120" stroke="white" stroke-width="1"/><line x1="0" y1="160" x2="800" y2="160" stroke="white" stroke-width="1"/><line x1="0" y1="200" x2="800" y2="200" stroke="white" stroke-width="1"/><line x1="0" y1="240" x2="800" y2="240" stroke="white" stroke-width="1"/><line x1="0" y1="280" x2="800" y2="280" stroke="white" stroke-width="1"/><line x1="0" y1="320" x2="800" y2="320" stroke="white" stroke-width="1"/><line x1="0" y1="360" x2="800" y2="360" stroke="white" stroke-width="1"/><line x1="0" y1="400" x2="800" y2="400" stroke="white" stroke-width="1"/><line x1="0" y1="440" x2="800" y2="440" stroke="white" stroke-width="1"/><line x1="0" y1="480" x2="800" y2="480" stroke="white" stroke-width="1"/>
</g>
<!-- Large equipment icon / illustration -->
<path d="M60 300 L740 300 L770 340 L30 340Z" fill="#27ae60" opacity="0.6"/>
<rect x="60" y="230" width="680" height="72" fill="#27ae60" opacity="0.5"/>
<rect x="500" y="150" width="220" height="85" rx="6" fill="rgba(255,255,255,0.08)" stroke="#27ae60" stroke-width="1"/>
<rect x="515" y="162" width="60" height="35" fill="#27ae60" opacity="0.5" rx="3"/>
<rect x="585" y="162" width="35" height="35" fill="#27ae60" opacity="0.5" rx="3"/>
<line x1="560" y1="140" x2="560" y2="105" stroke="#27ae60" stroke-width="6"/>
<circle cx="560" cy="102" r="8" fill="#e74c3c"/>
<rect x="80" y="260" width="180" height="40" rx="4" fill="rgba(255,255,255,0.08)"/>
<path d="M30 340 Q400 380 770 340" stroke="#27ae60" stroke-width="4" fill="none" opacity="0.4"/>
<rect x="60" y="338" width="680" height="8" fill="#f39c12" opacity="0.5"/>
<!-- Accent bar at bottom -->
<rect x="0" y="390" width="800" height="6" fill="#27ae60"/>
<!-- Info panel -->
<rect x="0" y="396" width="800" height="104" fill="rgba(0,0,0,0.45)"/>
<rect x="40" y="415" width="4" height="50" rx="2" fill="#27ae60"/>
<text x="58" y="438" font-family="Arial,sans-serif" font-size="20" font-weight="bold" fill="white">OFFSHORE SUPPLY VESSEL (PSV)</text>
<text x="58" y="460" font-family="Arial,sans-serif" font-size="12" fill="rgba(255,255,255,0.6)">4,500 DWT • DP2 • Multi-Purpose</text>
<!-- Corner badge -->
<rect x="620" y="410" width="160" height="70" rx="8" fill="rgba(255,255,255,0.06)" stroke="#27ae60" stroke-width="1" stroke-opacity="0.4"/>
<text x="700" y="440" text-anchor="middle" font-family="Arial,sans-serif" font-size="11" fill="#27ae60" font-weight="bold">HORDSTAKE</text>
<text x="700" y="458" text-anchor="middle" font-family="Arial,sans-serif" font-size="10" fill="rgba(255,255,255,0.5)">ENERGY ASSETS</text>
<text x="700" y="474" text-anchor="middle" font-family="Arial,sans-serif" font-size="10" fill="rgba(255,255,255,0.4)">RENTAL CATALOGUE</text>
</svg>