<svg xmlns="http://www.w3.org/2000/svg" viewBox="0 0 800 500">
<defs><linearGradient id="bg4" x1="0" y1="0" x2="0" y2="1"><stop offset="0%" stop-color="#e8f4f8"/><stop offset="100%" stop-color="#b8d4e8"/></linearGradient>
<linearGradient id="tank4a" x1="0" y1="0" x2="0" y2="1"><stop offset="0%" stop-color="#95a5a6"/><stop offset="30%" stop-color="#bdc3c7"/><stop offset="100%" stop-color="#7f8c8d"/></linearGradient>
<linearGradient id="tank4b" x1="0" y1="0" x2="0" y2="1"><stop offset="0%" stop-color="#7f8c8d"/><stop offset="30%" stop-color="#a0aaab"/><stop offset="100%" stop-color="#636e72"/></linearGradient></defs>
<rect width="800" height="500" fill="url(#bg4)"/>
<!-- Ground -->
<rect x="0" y="400" width="800" height="100" fill="#8B7355"/>
<rect x="0" y="398" width="800" height="6" fill="#6B5835"/>
<!-- Gravel/concrete base -->
<rect x="20" y="390" width="760" height="15" fill="#95a5a6" rx="2"/>
<!-- Large center tank -->
<ellipse cx="400" cy="195" rx="130" ry="30" fill="#bdc3c7"/>
<rect x="270" y="195" width="260" height="200" fill="url(#tank4a)"/>
<ellipse cx="400" cy="395" rx="130" ry="18" fill="#7f8c8d"/>
<!-- Tank ribs/rings -->
<ellipse cx="400" cy="235" rx="130" ry="12" fill="none" stroke="#95a5a6" stroke-width="4"/>
<ellipse cx="400" cy="275" rx="130" ry="12" fill="none" stroke="#95a5a6" stroke-width="4"/>
<ellipse cx="400" cy="315" rx="130" ry="12" fill="none" stroke="#95a5a6" stroke-width="4"/>
<ellipse cx="400" cy="355" rx="130" ry="12" fill="none" stroke="#95a5a6" stroke-width="4"/>
<!-- Top floating roof detail -->
<ellipse cx="400" cy="198" rx="118" ry="22" fill="#a0aaab"/>
<circle cx="400" cy="198" r="10" fill="#7f8c8d"/>
<line x1="400" y1="168" x2="400" y2="188" stroke="#636e72" stroke-width="4"/>
<!-- Left tank -->
<ellipse cx="170" cy="235" rx="95" ry="22" fill="#a0aaab"/>
<rect x="75" y="235" width="190" height="160" fill="url(#tank4b)"/>
<ellipse cx="170" cy="395" rx="95" ry="14" fill="#636e72"/>
<ellipse cx="170" cy="260" rx="95" ry="10" fill="none" stroke="#7f8c8d" stroke-width="3"/>
<ellipse cx="170" cy="295" rx="95" ry="10" fill="none" stroke="#7f8c8d" stroke-width="3"/>
<ellipse cx="170" cy="330" rx="95" ry="10" fill="none" stroke="#7f8c8d" stroke-width="3"/>
<ellipse cx="170" cy="365" rx="95" ry="10" fill="none" stroke="#7f8c8d" stroke-width="3"/>
<!-- Right tank -->
<ellipse cx="630" cy="235" rx="95" ry="22" fill="#a0aaab"/>
<rect x="535" y="235" width="190" height="160" fill="url(#tank4b)"/>
<ellipse cx="630" cy="395" rx="95" ry="14" fill="#636e72"/>
<ellipse cx="630" cy="260" rx="95" ry="10" fill="none" stroke="#7f8c8d" stroke-width="3"/>
<ellipse cx="630" cy="295" rx="95" ry="10" fill="none" stroke="#7f8c8d" stroke-width="3"/>
<ellipse cx="630" cy="330" rx="95" ry="10" fill="none" stroke="#7f8c8d" stroke-width="3"/>
<ellipse cx="630" cy="365" rx="95" ry="10" fill="none" stroke="#7f8c8d" stroke-width="3"/>
<!-- Pipes connecting tanks -->
<rect x="265" y="310" width="10" height="85" fill="#7f8c8d"/>
<rect x="200" y="314" width="70" height="10" rx="5" fill="#636e72"/>
<rect x="525" y="314" width="70" height="10" rx="5" fill="#636e72"/>
<rect x="525" y="310" width="10" height="85" fill="#7f8c8d"/>
<!-- Staircase on center tank -->
<rect x="528" y="220" width="8" height="175" fill="#7f8c8d"/>
<rect x="510" y="235" width="26" height="4" fill="#95a5a6"/>
<rect x="510" y="250" width="26" height="4" fill="#95a5a6"/>
<rect x="512" y="265" width="26" height="4" fill="#95a5a6"/>
<rect x="514" y="280" width="26" height="4" fill="#95a5a6"/>
<rect x="516" y="295" width="26" height="4" fill="#95a5a6"/>
<rect x="518" y="310" width="26" height="4" fill="#95a5a6"/>
<rect x="520" y="325" width="26" height="4" fill="#95a5a6"/>
<!-- Valve/pump unit -->
<rect x="348" y="356" width="104" height="44" rx="6" fill="#e74c3c"/>
<circle cx="375" cy="378" r="12" fill="#c0392b"/>
<circle cx="400" cy="378" r="12" fill="#c0392b"/>
<circle cx="425" cy="378" r="12" fill="#c0392b"/>
<!-- Warning sign -->
<polygon points="400,130 382,160 418,160" fill="#f39c12"/>
<text x="400" y="153" text-anchor="middle" font-family="Arial,sans-serif" font-size="14" font-weight="bold" fill="#2c3e50">!</text>
<!-- Caption -->
<text x="400" y="455" text-anchor="middle" font-family="Arial,sans-serif" font-size="18" font-weight="bold" fill="#2c3e50">CRUDE OIL STORAGE TANK FARM</text>
<text x="400" y="475" text-anchor="middle" font-family="Arial,sans-serif" font-size="12" fill="#7f8c8d">500,000 BBL Total Capacity • API 650 Standard • Fixed Roof</text>
</svg>